<?xml version="1.0" encoding="UTF-8" standalone="no"?>
<!-- Uploaded to: SVG Repo, www.svgrepo.com, Generator: SVG Repo Mixer Tools -->

<svg
   width="800"
   height="548.57141"
   viewBox="0 -11 70 47.999998"
   fill="none"
   version="1.1"
   id="svg1"
   xmlns="http://www.w3.org/2000/svg"
   xmlns:svg="http://www.w3.org/2000/svg">
  <defs
     id="defs1" />
  <rect
     x="0.5"
     y="-10.5"
     width="69"
     height="47"
     rx="5.5"
     fill="#ffffff"
     stroke="#d9d9d9"
     id="rect1" />
  <path
     fill-rule="evenodd"
     clip-rule="evenodd"
     d="M 21.2505,21.5165 H 17.0099 L 13.8299,9.3847 C 13.679,8.8267 13.3585,8.3333 12.8871,8.1008 11.7106,7.5165 10.4142,7.0514 9,6.8169 V 6.3498 h 6.8313 c 0.9429,0 1.65,0.7016 1.7678,1.5165 l 1.65,8.751 4.2386,-10.2675 h 4.1227 z m 8.717,0 H 25.9626 L 29.2604,6.3498 h 4.0049 z m 8.4792,-10.9651 c 0.1179,-0.8168 0.825,-1.2839 1.65,-1.2839 1.2964,-0.1173 2.7085,0.1173 3.8871,0.6996 L 44.6909,6.7016 C 43.5123,6.2345 42.216,6 41.0395,6 c -3.8871,0 -6.7156,2.1008 -6.7156,5.0165 0,2.2181 2.0035,3.3827 3.4178,4.0843 1.53,0.6996 2.1193,1.1667 2.0014,1.8663 0,1.0494 -1.1785,1.5165 -2.355,1.5165 -1.4142,0 -2.8285,-0.3498 -4.1228,-0.9342 l -0.7071,3.2675 c 1.4142,0.5823 2.9443,0.8169 4.3585,0.8169 4.3585,0.1152 7.0671,-1.9836 7.0671,-5.1338 0,-3.9671 -5.5371,-4.1996 -5.5371,-5.9486 z M 58,21.5165 54.82,6.3498 h -3.4156 c -0.7072,0 -1.4143,0.4671 -1.65,1.1667 l -5.8885,14 h 4.1228 l 0.8229,-2.2161 h 5.0656 l 0.4714,2.2161 z m -6.0064,-11.0823 1.1765,5.716 h -3.2978 z"
     fill="#172b85"
     id="path1" />
</svg>
